<svg width="480" height="380" viewBox="0 0 480 380" fill="none" xmlns="http://www.w3.org/2000/svg">
<g filter="url(#filter0_d_1_1021)">
<rect x="25" y="25" width="430" height="330" rx="10" fill="white"/>
</g>
<path d="M131.616 264.398H126.844L127.287 252.398H131.173L131.616 264.398ZM129.23 246.67C129.855 246.67 130.406 246.903 130.884 247.369C131.366 247.83 131.611 248.392 131.616 249.057C131.611 249.705 131.366 250.259 130.884 250.719C130.406 251.179 129.855 251.409 129.23 251.409C128.571 251.409 128.006 251.179 127.534 250.719C127.068 250.259 126.838 249.705 126.844 249.057C126.838 248.614 126.943 248.213 127.159 247.855C127.375 247.491 127.665 247.205 128.028 246.994C128.392 246.778 128.793 246.67 129.23 246.67ZM150.92 249.091H146.114C146.08 248.693 145.989 248.332 145.841 248.009C145.699 247.685 145.5 247.406 145.244 247.173C144.994 246.935 144.69 246.753 144.332 246.628C143.974 246.497 143.568 246.432 143.114 246.432C142.318 246.432 141.645 246.625 141.094 247.011C140.548 247.398 140.134 247.952 139.849 248.673C139.571 249.395 139.432 250.261 139.432 251.273C139.432 252.341 139.574 253.236 139.858 253.957C140.148 254.673 140.565 255.213 141.111 255.577C141.656 255.935 142.313 256.114 143.08 256.114C143.517 256.114 143.909 256.06 144.256 255.952C144.602 255.838 144.903 255.676 145.159 255.466C145.415 255.256 145.622 255.003 145.781 254.707C145.946 254.406 146.057 254.068 146.114 253.693L150.92 253.727C150.864 254.466 150.656 255.219 150.298 255.986C149.94 256.747 149.432 257.452 148.773 258.099C148.119 258.741 147.31 259.259 146.344 259.651C145.378 260.043 144.256 260.239 142.977 260.239C141.375 260.239 139.938 259.895 138.665 259.207C137.398 258.52 136.395 257.509 135.656 256.173C134.923 254.838 134.557 253.205 134.557 251.273C134.557 249.33 134.932 247.693 135.682 246.364C136.432 245.028 137.443 244.02 138.716 243.338C139.989 242.651 141.409 242.307 142.977 242.307C144.08 242.307 145.094 242.457 146.02 242.759C146.946 243.06 147.759 243.5 148.457 244.08C149.156 244.653 149.719 245.361 150.145 246.202C150.571 247.043 150.83 248.006 150.92 249.091ZM159.445 260.239C158.025 260.239 156.809 259.957 155.798 259.395C154.786 258.827 154.011 258.037 153.471 257.026C152.931 256.009 152.661 254.83 152.661 253.489C152.661 252.148 152.931 250.972 153.471 249.96C154.011 248.943 154.786 248.153 155.798 247.591C156.809 247.023 158.025 246.739 159.445 246.739C160.866 246.739 162.082 247.023 163.093 247.591C164.104 248.153 164.88 248.943 165.42 249.96C165.96 250.972 166.229 252.148 166.229 253.489C166.229 254.83 165.96 256.009 165.42 257.026C164.88 258.037 164.104 258.827 163.093 259.395C162.082 259.957 160.866 260.239 159.445 260.239ZM159.479 256.761C159.877 256.761 160.221 256.628 160.511 256.361C160.8 256.094 161.025 255.713 161.184 255.219C161.343 254.724 161.423 254.136 161.423 253.455C161.423 252.767 161.343 252.179 161.184 251.69C161.025 251.196 160.8 250.815 160.511 250.548C160.221 250.281 159.877 250.148 159.479 250.148C159.059 250.148 158.698 250.281 158.397 250.548C158.096 250.815 157.866 251.196 157.707 251.69C157.548 252.179 157.468 252.767 157.468 253.455C157.468 254.136 157.548 254.724 157.707 255.219C157.866 255.713 158.096 256.094 158.397 256.361C158.698 256.628 159.059 256.761 159.479 256.761ZM168.138 260V246.909H172.707V249.398H172.843C173.082 248.477 173.46 247.804 173.977 247.378C174.499 246.952 175.11 246.739 175.809 246.739C176.013 246.739 176.215 246.756 176.414 246.79C176.619 246.818 176.815 246.861 177.002 246.918V250.932C176.769 250.852 176.482 250.793 176.141 250.753C175.8 250.713 175.508 250.693 175.263 250.693C174.803 250.693 174.388 250.798 174.019 251.009C173.656 251.213 173.369 251.503 173.158 251.878C172.948 252.247 172.843 252.682 172.843 253.182V260H168.138ZM178.545 260V246.909H183.113V249.398H183.249C183.488 248.477 183.866 247.804 184.383 247.378C184.906 246.952 185.516 246.739 186.215 246.739C186.42 246.739 186.621 246.756 186.82 246.79C187.025 246.818 187.221 246.861 187.408 246.918V250.932C187.175 250.852 186.888 250.793 186.548 250.753C186.207 250.713 185.914 250.693 185.67 250.693C185.21 250.693 184.795 250.798 184.425 251.009C184.062 251.213 183.775 251.503 183.565 251.878C183.354 252.247 183.249 252.682 183.249 253.182V260H178.545ZM194.474 260.239C193.076 260.239 191.871 259.972 190.86 259.438C189.854 258.898 189.079 258.125 188.533 257.119C187.994 256.108 187.724 254.898 187.724 253.489C187.724 252.136 187.996 250.955 188.542 249.943C189.087 248.932 189.857 248.145 190.852 247.582C191.846 247.02 193.019 246.739 194.371 246.739C195.36 246.739 196.255 246.892 197.056 247.199C197.857 247.506 198.542 247.952 199.11 248.537C199.678 249.116 200.116 249.821 200.423 250.651C200.729 251.48 200.883 252.415 200.883 253.455V254.545H189.19V251.955H196.553C196.548 251.58 196.451 251.25 196.263 250.966C196.082 250.676 195.835 250.452 195.522 250.293C195.215 250.128 194.866 250.045 194.474 250.045C194.093 250.045 193.744 250.128 193.425 250.293C193.107 250.452 192.852 250.673 192.658 250.957C192.471 251.241 192.371 251.574 192.36 251.955V254.75C192.36 255.17 192.448 255.545 192.624 255.875C192.8 256.205 193.053 256.463 193.383 256.651C193.712 256.838 194.11 256.932 194.576 256.932C194.9 256.932 195.195 256.886 195.462 256.795C195.735 256.705 195.968 256.574 196.161 256.403C196.354 256.227 196.496 256.017 196.587 255.773H200.883C200.735 256.682 200.386 257.472 199.835 258.142C199.283 258.807 198.553 259.324 197.644 259.693C196.741 260.057 195.684 260.239 194.474 260.239ZM209.109 260.239C207.689 260.239 206.473 259.957 205.462 259.395C204.45 258.827 203.675 258.037 203.135 257.026C202.595 256.009 202.325 254.83 202.325 253.489C202.325 252.148 202.595 250.972 203.135 249.96C203.675 248.943 204.45 248.153 205.462 247.591C206.473 247.023 207.689 246.739 209.109 246.739C210.393 246.739 211.504 246.972 212.442 247.438C213.385 247.898 214.115 248.551 214.632 249.398C215.149 250.239 215.411 251.227 215.416 252.364H211.053C210.99 251.676 210.791 251.153 210.456 250.795C210.126 250.432 209.7 250.25 209.178 250.25C208.768 250.25 208.411 250.369 208.104 250.608C207.797 250.841 207.558 251.196 207.388 251.673C207.217 252.145 207.132 252.739 207.132 253.455C207.132 254.17 207.217 254.767 207.388 255.244C207.558 255.716 207.797 256.071 208.104 256.31C208.411 256.543 208.768 256.659 209.178 256.659C209.524 256.659 209.831 256.58 210.098 256.42C210.365 256.256 210.581 256.017 210.746 255.705C210.916 255.386 211.018 255 211.053 254.545H215.416C215.399 255.699 215.135 256.705 214.624 257.562C214.112 258.415 213.388 259.074 212.45 259.54C211.518 260.006 210.405 260.239 209.109 260.239ZM225.164 246.909V250.318H216.539V246.909H225.164ZM218.21 243.773H222.914V255.79C222.914 255.972 222.945 256.125 223.008 256.25C223.07 256.369 223.167 256.46 223.298 256.523C223.428 256.58 223.596 256.608 223.8 256.608C223.942 256.608 224.107 256.591 224.295 256.557C224.488 256.523 224.63 256.494 224.721 256.472L225.403 259.778C225.192 259.841 224.891 259.918 224.499 260.009C224.113 260.099 223.653 260.159 223.119 260.188C222.039 260.244 221.133 260.134 220.4 259.855C219.667 259.571 219.116 259.125 218.746 258.517C218.377 257.909 218.198 257.148 218.21 256.233V243.773ZM233.25 260.239C231.83 260.239 230.614 259.957 229.602 259.395C228.591 258.827 227.815 258.037 227.276 257.026C226.736 256.009 226.466 254.83 226.466 253.489C226.466 252.148 226.736 250.972 227.276 249.96C227.815 248.943 228.591 248.153 229.602 247.591C230.614 247.023 231.83 246.739 233.25 246.739C234.67 246.739 235.886 247.023 236.898 247.591C237.909 248.153 238.685 248.943 239.224 249.96C239.764 250.972 240.034 252.148 240.034 253.489C240.034 254.83 239.764 256.009 239.224 257.026C238.685 258.037 237.909 258.827 236.898 259.395C235.886 259.957 234.67 260.239 233.25 260.239ZM233.284 256.761C233.682 256.761 234.026 256.628 234.315 256.361C234.605 256.094 234.83 255.713 234.989 255.219C235.148 254.724 235.227 254.136 235.227 253.455C235.227 252.767 235.148 252.179 234.989 251.69C234.83 251.196 234.605 250.815 234.315 250.548C234.026 250.281 233.682 250.148 233.284 250.148C232.864 250.148 232.503 250.281 232.202 250.548C231.901 250.815 231.67 251.196 231.511 251.69C231.352 252.179 231.273 252.767 231.273 253.455C231.273 254.136 231.352 254.724 231.511 255.219C231.67 255.713 231.901 256.094 232.202 256.361C232.503 256.628 232.864 256.761 233.284 256.761ZM247.398 242.545L246.955 254.545H243.068L242.625 242.545H247.398ZM245.011 260.273C244.352 260.273 243.787 260.043 243.315 259.582C242.849 259.116 242.619 258.551 242.625 257.886C242.619 257.239 242.849 256.685 243.315 256.224C243.787 255.764 244.352 255.534 245.011 255.534C245.636 255.534 246.188 255.764 246.665 256.224C247.148 256.685 247.392 257.239 247.398 257.886C247.392 258.33 247.276 258.733 247.048 259.097C246.827 259.455 246.537 259.741 246.179 259.957C245.821 260.168 245.432 260.273 245.011 260.273ZM254.472 242.545H259.756L263.165 249.636H263.301L266.71 242.545H271.994L265.585 254.511V260H260.881V254.511L254.472 242.545ZM274.185 260.205C273.349 260.205 272.611 260.068 271.969 259.795C271.332 259.517 270.832 259.097 270.469 258.534C270.105 257.972 269.923 257.256 269.923 256.386C269.923 255.67 270.045 255.06 270.29 254.554C270.534 254.043 270.875 253.625 271.312 253.301C271.75 252.977 272.259 252.73 272.838 252.56C273.423 252.389 274.054 252.278 274.73 252.227C275.463 252.17 276.051 252.102 276.494 252.023C276.943 251.937 277.267 251.821 277.466 251.673C277.665 251.52 277.764 251.318 277.764 251.068V251.034C277.764 250.693 277.634 250.432 277.372 250.25C277.111 250.068 276.776 249.977 276.366 249.977C275.918 249.977 275.551 250.077 275.267 250.276C274.989 250.469 274.821 250.767 274.764 251.17H270.435C270.491 250.375 270.744 249.642 271.193 248.972C271.648 248.295 272.31 247.756 273.179 247.352C274.048 246.943 275.134 246.739 276.435 246.739C277.372 246.739 278.213 246.849 278.957 247.071C279.702 247.287 280.335 247.591 280.858 247.983C281.381 248.369 281.778 248.824 282.051 249.347C282.33 249.864 282.469 250.426 282.469 251.034V260H278.071V258.159H277.969C277.707 258.648 277.389 259.043 277.014 259.344C276.645 259.645 276.222 259.864 275.744 260C275.273 260.136 274.753 260.205 274.185 260.205ZM275.719 257.239C276.077 257.239 276.412 257.165 276.724 257.017C277.043 256.869 277.301 256.656 277.5 256.378C277.699 256.099 277.798 255.761 277.798 255.364V254.273C277.673 254.324 277.54 254.372 277.398 254.418C277.261 254.463 277.114 254.506 276.955 254.545C276.801 254.585 276.636 254.622 276.46 254.656C276.29 254.69 276.111 254.722 275.923 254.75C275.56 254.807 275.261 254.901 275.028 255.031C274.801 255.156 274.631 255.312 274.517 255.5C274.409 255.682 274.355 255.886 274.355 256.114C274.355 256.477 274.483 256.756 274.739 256.949C274.994 257.142 275.321 257.239 275.719 257.239ZM295.771 260.239C294.373 260.239 293.168 259.972 292.157 259.438C291.151 258.898 290.376 258.125 289.83 257.119C289.29 256.108 289.021 254.898 289.021 253.489C289.021 252.136 289.293 250.955 289.839 249.943C290.384 248.932 291.154 248.145 292.148 247.582C293.143 247.02 294.316 246.739 295.668 246.739C296.657 246.739 297.552 246.892 298.353 247.199C299.154 247.506 299.839 247.952 300.407 248.537C300.975 249.116 301.413 249.821 301.719 250.651C302.026 251.48 302.18 252.415 302.18 253.455V254.545H290.487V251.955H297.85C297.844 251.58 297.748 251.25 297.56 250.966C297.379 250.676 297.131 250.452 296.819 250.293C296.512 250.128 296.163 250.045 295.771 250.045C295.39 250.045 295.04 250.128 294.722 250.293C294.404 250.452 294.148 250.673 293.955 250.957C293.768 251.241 293.668 251.574 293.657 251.955V254.75C293.657 255.17 293.745 255.545 293.921 255.875C294.097 256.205 294.35 256.463 294.68 256.651C295.009 256.838 295.407 256.932 295.873 256.932C296.197 256.932 296.492 256.886 296.759 256.795C297.032 256.705 297.265 256.574 297.458 256.403C297.651 256.227 297.793 256.017 297.884 255.773H302.18C302.032 256.682 301.683 257.472 301.131 258.142C300.58 258.807 299.85 259.324 298.941 259.693C298.038 260.057 296.981 260.239 295.771 260.239ZM316.065 251.17H311.736C311.713 250.903 311.619 250.673 311.455 250.48C311.29 250.287 311.077 250.139 310.815 250.037C310.56 249.929 310.276 249.875 309.963 249.875C309.56 249.875 309.213 249.949 308.923 250.097C308.634 250.244 308.491 250.455 308.497 250.727C308.491 250.92 308.574 251.099 308.744 251.264C308.92 251.429 309.259 251.557 309.759 251.648L312.418 252.125C313.759 252.369 314.756 252.781 315.409 253.361C316.068 253.935 316.401 254.705 316.406 255.67C316.401 256.602 316.122 257.412 315.571 258.099C315.026 258.781 314.278 259.31 313.33 259.685C312.386 260.054 311.31 260.239 310.099 260.239C308.099 260.239 306.534 259.83 305.403 259.011C304.278 258.193 303.651 257.114 303.52 255.773H308.19C308.253 256.187 308.457 256.509 308.804 256.736C309.156 256.957 309.599 257.068 310.134 257.068C310.565 257.068 310.92 256.994 311.199 256.847C311.483 256.699 311.628 256.489 311.634 256.216C311.628 255.966 311.503 255.767 311.259 255.619C311.02 255.472 310.645 255.352 310.134 255.261L307.815 254.852C306.48 254.619 305.48 254.176 304.815 253.523C304.151 252.869 303.821 252.028 303.827 251C303.821 250.091 304.06 249.321 304.543 248.69C305.031 248.054 305.727 247.571 306.631 247.241C307.54 246.906 308.616 246.739 309.861 246.739C311.753 246.739 313.244 247.131 314.335 247.915C315.432 248.699 316.009 249.784 316.065 251.17ZM326.016 246.909V250.318H317.391V246.909H326.016ZM319.061 243.773H323.766V255.79C323.766 255.972 323.797 256.125 323.859 256.25C323.922 256.369 324.018 256.46 324.149 256.523C324.28 256.58 324.447 256.608 324.652 256.608C324.794 256.608 324.959 256.591 325.146 256.557C325.339 256.523 325.482 256.494 325.572 256.472L326.254 259.778C326.044 259.841 325.743 259.918 325.351 260.009C324.964 260.099 324.504 260.159 323.97 260.188C322.891 260.244 321.984 260.134 321.251 259.855C320.518 259.571 319.967 259.125 319.598 258.517C319.229 257.909 319.05 257.148 319.061 256.233V243.773ZM331.583 260.205C330.748 260.205 330.009 260.068 329.367 259.795C328.731 259.517 328.231 259.097 327.867 258.534C327.504 257.972 327.322 257.256 327.322 256.386C327.322 255.67 327.444 255.06 327.688 254.554C327.933 254.043 328.273 253.625 328.711 253.301C329.148 252.977 329.657 252.73 330.237 252.56C330.822 252.389 331.452 252.278 332.129 252.227C332.862 252.17 333.45 252.102 333.893 252.023C334.342 251.937 334.665 251.821 334.864 251.673C335.063 251.52 335.163 251.318 335.163 251.068V251.034C335.163 250.693 335.032 250.432 334.771 250.25C334.509 250.068 334.174 249.977 333.765 249.977C333.316 249.977 332.95 250.077 332.665 250.276C332.387 250.469 332.219 250.767 332.163 251.17H327.833C327.89 250.375 328.143 249.642 328.592 248.972C329.046 248.295 329.708 247.756 330.577 247.352C331.447 246.943 332.532 246.739 333.833 246.739C334.771 246.739 335.612 246.849 336.356 247.071C337.1 247.287 337.734 247.591 338.256 247.983C338.779 248.369 339.177 248.824 339.45 249.347C339.728 249.864 339.867 250.426 339.867 251.034V260H335.469V258.159H335.367C335.106 258.648 334.788 259.043 334.413 259.344C334.043 259.645 333.62 259.864 333.143 260C332.671 260.136 332.151 260.205 331.583 260.205ZM333.117 257.239C333.475 257.239 333.81 257.165 334.123 257.017C334.441 256.869 334.7 256.656 334.898 256.378C335.097 256.099 335.197 255.761 335.197 255.364V254.273C335.072 254.324 334.938 254.372 334.796 254.418C334.66 254.463 334.512 254.506 334.353 254.545C334.2 254.585 334.035 254.622 333.859 254.656C333.688 254.69 333.509 254.722 333.322 254.75C332.958 254.807 332.66 254.901 332.427 255.031C332.2 255.156 332.029 255.312 331.915 255.5C331.808 255.682 331.754 255.886 331.754 256.114C331.754 256.477 331.881 256.756 332.137 256.949C332.393 257.142 332.719 257.239 333.117 257.239ZM332.401 245.273L334.038 241.455H338.06L335.504 245.273H332.401ZM354.081 251.17H349.751C349.729 250.903 349.635 250.673 349.47 250.48C349.305 250.287 349.092 250.139 348.831 250.037C348.575 249.929 348.291 249.875 347.979 249.875C347.575 249.875 347.229 249.949 346.939 250.097C346.649 250.244 346.507 250.455 346.513 250.727C346.507 250.92 346.589 251.099 346.76 251.264C346.936 251.429 347.274 251.557 347.774 251.648L350.433 252.125C351.774 252.369 352.771 252.781 353.425 253.361C354.084 253.935 354.416 254.705 354.422 255.67C354.416 256.602 354.138 257.412 353.587 258.099C353.041 258.781 352.294 259.31 351.345 259.685C350.402 260.054 349.325 260.239 348.115 260.239C346.115 260.239 344.55 259.83 343.419 259.011C342.294 258.193 341.666 257.114 341.536 255.773H346.206C346.268 256.187 346.473 256.509 346.82 256.736C347.172 256.957 347.615 257.068 348.149 257.068C348.581 257.068 348.936 256.994 349.214 256.847C349.499 256.699 349.643 256.489 349.649 256.216C349.643 255.966 349.518 255.767 349.274 255.619C349.036 255.472 348.661 255.352 348.149 255.261L345.831 254.852C344.496 254.619 343.496 254.176 342.831 253.523C342.166 252.869 341.837 252.028 341.842 251C341.837 250.091 342.075 249.321 342.558 248.69C343.047 248.054 343.743 247.571 344.646 247.241C345.555 246.906 346.632 246.739 347.876 246.739C349.768 246.739 351.26 247.131 352.351 247.915C353.447 248.699 354.024 249.784 354.081 251.17ZM174.83 289V275.909H179.398V278.398H179.534C179.773 277.477 180.151 276.804 180.668 276.378C181.191 275.952 181.801 275.739 182.5 275.739C182.705 275.739 182.907 275.756 183.105 275.79C183.31 275.818 183.506 275.861 183.694 275.918V279.932C183.461 279.852 183.174 279.793 182.833 279.753C182.492 279.713 182.199 279.693 181.955 279.693C181.495 279.693 181.08 279.798 180.711 280.009C180.347 280.213 180.06 280.503 179.85 280.878C179.64 281.247 179.534 281.682 179.534 282.182V289H174.83ZM190.759 289.239C189.361 289.239 188.157 288.972 187.145 288.438C186.14 287.898 185.364 287.125 184.819 286.119C184.279 285.108 184.009 283.898 184.009 282.489C184.009 281.136 184.282 279.955 184.827 278.943C185.373 277.932 186.142 277.145 187.137 276.582C188.131 276.02 189.304 275.739 190.657 275.739C191.645 275.739 192.54 275.892 193.341 276.199C194.142 276.506 194.827 276.952 195.395 277.537C195.963 278.116 196.401 278.821 196.708 279.651C197.015 280.48 197.168 281.415 197.168 282.455V283.545H185.475V280.955H192.838C192.833 280.58 192.736 280.25 192.549 279.966C192.367 279.676 192.12 279.452 191.807 279.293C191.5 279.128 191.151 279.045 190.759 279.045C190.378 279.045 190.029 279.128 189.711 279.293C189.392 279.452 189.137 279.673 188.944 279.957C188.756 280.241 188.657 280.574 188.645 280.955V283.75C188.645 284.17 188.733 284.545 188.909 284.875C189.086 285.205 189.338 285.463 189.668 285.651C189.998 285.838 190.395 285.932 190.861 285.932C191.185 285.932 191.48 285.886 191.748 285.795C192.02 285.705 192.253 285.574 192.446 285.403C192.64 285.227 192.782 285.017 192.873 284.773H197.168C197.02 285.682 196.671 286.472 196.12 287.142C195.569 287.807 194.838 288.324 193.929 288.693C193.026 289.057 191.969 289.239 190.759 289.239ZM205.395 294.182C204.082 294.182 202.957 293.994 202.02 293.619C201.088 293.25 200.363 292.739 199.846 292.085C199.335 291.438 199.048 290.693 198.985 289.852H203.52C203.565 290.131 203.679 290.355 203.86 290.526C204.042 290.696 204.275 290.818 204.559 290.892C204.849 290.972 205.173 291.011 205.531 291.011C206.139 291.011 206.642 290.864 207.039 290.568C207.443 290.273 207.645 289.739 207.645 288.966V286.75H207.508C207.338 287.193 207.076 287.571 206.724 287.884C206.372 288.19 205.949 288.426 205.454 288.591C204.96 288.75 204.417 288.83 203.826 288.83C202.895 288.83 202.037 288.614 201.252 288.182C200.474 287.75 199.849 287.065 199.377 286.128C198.912 285.19 198.679 283.966 198.679 282.455C198.679 280.875 198.923 279.591 199.412 278.602C199.906 277.614 200.542 276.889 201.321 276.429C202.105 275.969 202.929 275.739 203.792 275.739C204.44 275.739 205.008 275.852 205.497 276.08C205.985 276.301 206.395 276.599 206.724 276.974C207.054 277.344 207.304 277.75 207.474 278.193H207.576V275.909H212.281V288.966C212.281 290.074 211.994 291.014 211.42 291.787C210.852 292.565 210.051 293.159 209.017 293.568C207.983 293.977 206.775 294.182 205.395 294.182ZM205.565 285.489C205.997 285.489 206.366 285.369 206.673 285.131C206.985 284.886 207.224 284.54 207.389 284.091C207.559 283.636 207.645 283.091 207.645 282.455C207.645 281.807 207.559 281.253 207.389 280.793C207.224 280.327 206.985 279.972 206.673 279.727C206.366 279.477 205.997 279.352 205.565 279.352C205.133 279.352 204.764 279.477 204.457 279.727C204.156 279.972 203.923 280.327 203.758 280.793C203.599 281.253 203.52 281.807 203.52 282.455C203.52 283.102 203.599 283.653 203.758 284.108C203.923 284.557 204.156 284.901 204.457 285.139C204.764 285.372 205.133 285.489 205.565 285.489ZM214.674 289V275.909H219.378V289H214.674ZM217.026 274.545C216.39 274.545 215.844 274.335 215.39 273.915C214.935 273.494 214.708 272.989 214.708 272.398C214.708 271.807 214.935 271.301 215.39 270.881C215.844 270.46 216.39 270.25 217.026 270.25C217.668 270.25 218.213 270.46 218.662 270.881C219.117 271.301 219.344 271.807 219.344 272.398C219.344 272.989 219.117 273.494 218.662 273.915C218.213 274.335 217.668 274.545 217.026 274.545ZM233.741 280.17H229.412C229.389 279.903 229.295 279.673 229.13 279.48C228.966 279.287 228.752 279.139 228.491 279.037C228.235 278.929 227.951 278.875 227.639 278.875C227.235 278.875 226.889 278.949 226.599 279.097C226.309 279.244 226.167 279.455 226.173 279.727C226.167 279.92 226.25 280.099 226.42 280.264C226.596 280.429 226.934 280.557 227.434 280.648L230.093 281.125C231.434 281.369 232.431 281.781 233.085 282.361C233.744 282.935 234.076 283.705 234.082 284.67C234.076 285.602 233.798 286.412 233.247 287.099C232.701 287.781 231.954 288.31 231.005 288.685C230.062 289.054 228.985 289.239 227.775 289.239C225.775 289.239 224.21 288.83 223.079 288.011C221.954 287.193 221.326 286.114 221.196 284.773H225.866C225.929 285.187 226.133 285.509 226.48 285.736C226.832 285.957 227.275 286.068 227.809 286.068C228.241 286.068 228.596 285.994 228.875 285.847C229.159 285.699 229.304 285.489 229.309 285.216C229.304 284.966 229.179 284.767 228.934 284.619C228.696 284.472 228.321 284.352 227.809 284.261L225.491 283.852C224.156 283.619 223.156 283.176 222.491 282.523C221.826 281.869 221.497 281.028 221.502 280C221.497 279.091 221.735 278.321 222.218 277.69C222.707 277.054 223.403 276.571 224.306 276.241C225.216 275.906 226.292 275.739 227.537 275.739C229.429 275.739 230.92 276.131 232.011 276.915C233.108 277.699 233.684 278.784 233.741 280.17ZM243.691 275.909V279.318H235.066V275.909H243.691ZM236.737 272.773H241.441V284.79C241.441 284.972 241.473 285.125 241.535 285.25C241.598 285.369 241.694 285.46 241.825 285.523C241.956 285.58 242.123 285.608 242.328 285.608C242.47 285.608 242.635 285.591 242.822 285.557C243.015 285.523 243.157 285.494 243.248 285.472L243.93 288.778C243.72 288.841 243.419 288.918 243.027 289.009C242.64 289.099 242.18 289.159 241.646 289.188C240.566 289.244 239.66 289.134 238.927 288.855C238.194 288.571 237.643 288.125 237.274 287.517C236.904 286.909 236.725 286.148 236.737 285.233V272.773ZM245.611 289V275.909H250.179V278.398H250.316C250.554 277.477 250.932 276.804 251.449 276.378C251.972 275.952 252.583 275.739 253.282 275.739C253.486 275.739 253.688 275.756 253.887 275.79C254.091 275.818 254.287 275.861 254.475 275.918V279.932C254.242 279.852 253.955 279.793 253.614 279.753C253.273 279.713 252.98 279.693 252.736 279.693C252.276 279.693 251.861 279.798 251.492 280.009C251.128 280.213 250.841 280.503 250.631 280.878C250.421 281.247 250.316 281.682 250.316 282.182V289H245.611ZM259.056 289.205C258.221 289.205 257.482 289.068 256.84 288.795C256.203 288.517 255.703 288.097 255.34 287.534C254.976 286.972 254.794 286.256 254.794 285.386C254.794 284.67 254.917 284.06 255.161 283.554C255.405 283.043 255.746 282.625 256.184 282.301C256.621 281.977 257.13 281.73 257.709 281.56C258.294 281.389 258.925 281.278 259.601 281.227C260.334 281.17 260.922 281.102 261.365 281.023C261.814 280.937 262.138 280.821 262.337 280.673C262.536 280.52 262.635 280.318 262.635 280.068V280.034C262.635 279.693 262.505 279.432 262.243 279.25C261.982 279.068 261.647 278.977 261.238 278.977C260.789 278.977 260.422 279.077 260.138 279.276C259.86 279.469 259.692 279.767 259.635 280.17H255.306C255.363 279.375 255.615 278.642 256.064 277.972C256.519 277.295 257.181 276.756 258.05 276.352C258.919 275.943 260.005 275.739 261.306 275.739C262.243 275.739 263.084 275.849 263.828 276.071C264.573 276.287 265.206 276.591 265.729 276.983C266.252 277.369 266.65 277.824 266.922 278.347C267.201 278.864 267.34 279.426 267.34 280.034V289H262.942V287.159H262.84C262.578 287.648 262.26 288.043 261.885 288.344C261.516 288.645 261.093 288.864 260.615 289C260.144 289.136 259.624 289.205 259.056 289.205ZM260.59 286.239C260.948 286.239 261.283 286.165 261.596 286.017C261.914 285.869 262.172 285.656 262.371 285.378C262.57 285.099 262.669 284.761 262.669 284.364V283.273C262.544 283.324 262.411 283.372 262.269 283.418C262.132 283.463 261.985 283.506 261.826 283.545C261.672 283.585 261.507 283.622 261.331 283.656C261.161 283.69 260.982 283.722 260.794 283.75C260.431 283.807 260.132 283.901 259.9 284.031C259.672 284.156 259.502 284.312 259.388 284.5C259.28 284.682 259.226 284.886 259.226 285.114C259.226 285.477 259.354 285.756 259.61 285.949C259.865 286.142 260.192 286.239 260.59 286.239ZM274.326 289.17C273.395 289.17 272.537 288.926 271.752 288.438C270.974 287.949 270.349 287.207 269.877 286.213C269.412 285.219 269.179 283.966 269.179 282.455C269.179 280.875 269.423 279.591 269.912 278.602C270.406 277.614 271.042 276.889 271.821 276.429C272.605 275.969 273.429 275.739 274.292 275.739C274.94 275.739 275.508 275.852 275.997 276.08C276.485 276.301 276.895 276.599 277.224 276.974C277.554 277.344 277.804 277.75 277.974 278.193H278.042V271.545H282.747V289H278.076V286.852H277.974C277.792 287.295 277.531 287.693 277.19 288.045C276.855 288.392 276.446 288.668 275.963 288.872C275.485 289.071 274.94 289.17 274.326 289.17ZM276.065 285.557C276.497 285.557 276.866 285.432 277.173 285.182C277.485 284.926 277.724 284.568 277.889 284.108C278.059 283.642 278.145 283.091 278.145 282.455C278.145 281.807 278.059 281.253 277.889 280.793C277.724 280.327 277.485 279.972 277.173 279.727C276.866 279.477 276.497 279.352 276.065 279.352C275.633 279.352 275.264 279.477 274.957 279.727C274.656 279.972 274.423 280.327 274.258 280.793C274.099 281.253 274.02 281.807 274.02 282.455C274.02 283.102 274.099 283.659 274.258 284.125C274.423 284.585 274.656 284.94 274.957 285.19C275.264 285.435 275.633 285.557 276.065 285.557ZM291.363 289.239C289.943 289.239 288.727 288.957 287.716 288.395C286.704 287.827 285.929 287.037 285.389 286.026C284.849 285.009 284.579 283.83 284.579 282.489C284.579 281.148 284.849 279.972 285.389 278.96C285.929 277.943 286.704 277.153 287.716 276.591C288.727 276.023 289.943 275.739 291.363 275.739C292.784 275.739 294 276.023 295.011 276.591C296.022 277.153 296.798 277.943 297.338 278.96C297.877 279.972 298.147 281.148 298.147 282.489C298.147 283.83 297.877 285.009 297.338 286.026C296.798 287.037 296.022 287.827 295.011 288.395C294 288.957 292.784 289.239 291.363 289.239ZM291.397 285.761C291.795 285.761 292.139 285.628 292.429 285.361C292.718 285.094 292.943 284.713 293.102 284.219C293.261 283.724 293.341 283.136 293.341 282.455C293.341 281.767 293.261 281.179 293.102 280.69C292.943 280.196 292.718 279.815 292.429 279.548C292.139 279.281 291.795 279.148 291.397 279.148C290.977 279.148 290.616 279.281 290.315 279.548C290.014 279.815 289.784 280.196 289.625 280.69C289.466 281.179 289.386 281.767 289.386 282.455C289.386 283.136 289.466 283.724 289.625 284.219C289.784 284.713 290.014 285.094 290.315 285.361C290.616 285.628 290.977 285.761 291.397 285.761ZM302.613 289.273C301.954 289.273 301.389 289.043 300.917 288.582C300.451 288.116 300.221 287.551 300.227 286.886C300.221 286.239 300.451 285.685 300.917 285.224C301.389 284.764 301.954 284.534 302.613 284.534C303.238 284.534 303.789 284.764 304.267 285.224C304.75 285.685 304.994 286.239 305 286.886C304.994 287.33 304.877 287.733 304.65 288.097C304.429 288.455 304.139 288.741 303.781 288.957C303.423 289.168 303.034 289.273 302.613 289.273Z" fill="black"/>
<path fill-rule="evenodd" clip-rule="evenodd" d="M297 145C297 176.48 271.48 202 240 202C208.52 202 183 176.48 183 145C183 113.52 208.52 88 240 88C271.48 88 297 113.52 297 145ZM300 145C300 178.137 273.137 205 240 205C206.863 205 180 178.137 180 145C180 111.863 206.863 85 240 85C273.137 85 300 111.863 300 145ZM237.55 161.888L266.768 133.888L261.232 128.112L234.428 153.8L219.35 142.856L214.65 149.331L232.433 162.237L235.138 164.2L237.55 161.888Z" fill="black"/>
<defs>
<filter id="filter0_d_1_1021" x="0" y="0" width="480" height="380" filterUnits="userSpaceOnUse" color-interpolation-filters="sRGB">
<feFlood flood-opacity="0" result="BackgroundImageFix"/>
<feColorMatrix in="SourceAlpha" type="matrix" values="0 0 0 0 0 0 0 0 0 0 0 0 0 0 0 0 0 0 127 0" result="hardAlpha"/>
<feOffset/>
<feGaussianBlur stdDeviation="12.5"/>
<feColorMatrix type="matrix" values="0 0 0 0 0 0 0 0 0 0 0 0 0 0 0 0 0 0 0.15 0"/>
<feBlend mode="normal" in2="BackgroundImageFix" result="effect1_dropShadow_1_1021"/>
<feBlend mode="normal" in="SourceGraphic" in2="effect1_dropShadow_1_1021" result="shape"/>
</filter>
</defs>
</svg>
